<?xml version="1.0" encoding="UTF-8" standalone="no"?>
<!DOCTYPE svg PUBLIC "-//W3C//DTD SVG 1.1//EN" "http://www.w3.org/Graphics/SVG/1.1/DTD/svg11.dtd">
<svg width="100%" height="100%" viewBox="0 0 872 257" version="1.1" xmlns="http://www.w3.org/2000/svg" xmlns:xlink="http://www.w3.org/1999/xlink" xml:space="preserve" xmlns:serif="http://www.serif.com/" style="fill-rule:evenodd;clip-rule:evenodd;stroke-linejoin:round;stroke-miterlimit:2;">
    <g transform="matrix(1,0,0,1,-400.677674,-462.904014)">
        <g transform="matrix(2,0,0,2,0,0)">
            <g transform="matrix(0.420479,0,0,0.2073,-74.009075,198.203508)">
                <path d="M751.888,449.756L763.791,520.173L739.844,520.173L751.888,449.756ZM746.645,419.578L748.771,431.937L717.455,615.021L739.844,615.021L739.844,613.584C732.334,604.387 731.625,575.932 737.86,531.67L765.775,531.67L780.086,615.021L800.916,615.021L800.916,613.584C798.649,611.285 796.807,606.111 794.965,596.914L764.641,419.578L746.645,419.578Z" style="fill:rgb(3,54,85);fill-rule:nonzero;"/>
                <path d="M811.543,594.902C811.543,604.387 810.552,609.56 808.001,613.584L808.001,615.021L832.09,615.021L832.09,613.584C829.539,609.56 828.547,604.387 828.547,594.902L828.547,419.578L828.122,419.003L808.001,427.05L808.001,428.488C810.552,432.511 811.543,437.685 811.543,447.17L811.543,594.902ZM830.106,533.682L845.835,591.165C850.652,608.985 855.895,615.021 866.523,615.021L873.891,615.021L873.891,613.584C871.624,611.572 869.64,606.686 866.806,596.626L845.268,517.874L866.806,471.313L844.134,471.313L844.134,472.75C849.235,476.199 849.519,490.282 841.017,510.114L830.106,533.682Z" style="fill:rgb(3,54,85);fill-rule:nonzero;"/>
                <path d="M917.818,594.902C917.818,601.225 916.684,603.812 914.275,604.099L909.316,604.387C900.247,604.961 895.004,591.74 895.004,576.795C895.004,559.262 901.947,546.903 917.818,538.568L917.818,594.902ZM876.725,581.681C876.725,601.225 885.227,617.895 901.664,617.895C908.465,617.895 913.85,615.021 921.927,615.021L938.364,615.021L938.364,613.584C935.813,609.56 934.821,604.387 934.821,594.902L934.821,511.264C934.821,485.971 923.627,468.438 906.907,468.438C896.846,468.438 888.061,474.762 883.385,485.683L886.644,523.048L887.352,523.048C889.903,496.03 896.988,479.935 905.631,479.935C913.141,479.935 917.818,492.294 917.818,511.264L917.818,527.934C892.595,537.131 876.725,554.951 876.725,581.681Z" style="fill:rgb(3,54,85);fill-rule:nonzero;"/>
                <path d="M1011.197,594.902L1011.197,419.578L1010.772,419.003L990.651,427.05L990.651,428.488C993.201,432.511 994.193,437.685 994.193,447.17L994.193,492.581C990.084,477.061 983.566,468.438 975.489,468.438C959.619,468.438 946.866,502.354 946.866,544.029C946.866,585.705 959.619,617.895 976.197,617.895C983.849,617.895 990.509,610.997 994.618,599.788C995.752,609.273 999.294,615.021 1004.112,615.021L1014.74,615.021L1014.74,613.584C1012.189,609.56 1011.197,604.387 1011.197,594.902ZM994.193,521.323L994.193,571.334C994.193,589.154 990.509,599.213 984.274,599.213C973.789,599.213 964.436,569.897 964.436,528.509C964.436,498.905 969.254,481.085 977.473,481.085C985.55,481.085 992.776,498.617 994.193,521.323Z" style="fill:rgb(3,54,85);fill-rule:nonzero;"/>
                <path d="M1041.662,547.191C1041.095,541.442 1040.812,535.119 1040.812,528.509C1040.812,500.629 1046.905,480.51 1055.974,480.51C1062.917,480.51 1067.593,492.581 1069.01,512.988L1041.662,547.191ZM1085.305,506.09C1085.305,485.109 1074.253,468.438 1059.516,468.438C1038.97,468.438 1023.241,500.342 1023.241,543.167C1023.241,585.992 1038.97,617.895 1058.666,617.895C1071.419,617.895 1081.621,604.387 1087.289,581.393L1085.589,578.519C1081.621,590.303 1074.395,597.489 1066.601,597.489C1055.265,597.489 1046.905,582.256 1043.079,558.975L1085.305,506.09Z" style="fill:rgb(3,54,85);fill-rule:nonzero;"/>
                <path d="M1099.334,594.902C1099.334,604.387 1098.342,609.56 1095.791,613.584L1095.791,615.021L1119.88,615.021L1119.88,613.584C1117.329,609.56 1116.338,604.387 1116.338,594.902L1116.338,514.425C1116.338,498.905 1121.439,487.408 1128.524,487.408C1134.758,487.408 1139.009,496.605 1139.009,510.114L1139.009,594.902C1139.009,604.387 1138.017,609.56 1135.467,613.584L1135.467,615.021L1159.556,615.021L1159.556,613.584C1157.005,609.56 1156.013,604.387 1156.013,594.902L1156.013,514.425C1156.013,498.905 1161.114,487.408 1168.199,487.408C1174.434,487.408 1178.685,496.605 1178.685,510.114L1178.685,594.902C1178.685,604.387 1177.693,609.56 1175.143,613.584L1175.143,615.021L1199.231,615.021L1199.231,613.584C1196.681,609.56 1195.689,604.387 1195.689,594.902L1195.689,510.114C1195.689,485.683 1187.187,468.438 1175.426,468.438C1166.499,468.438 1158.422,478.498 1154.455,493.156C1151.479,478.211 1144.536,468.438 1135.75,468.438C1127.815,468.438 1120.588,476.486 1116.338,488.558L1116.338,471.313L1115.912,470.738L1095.791,478.785L1095.791,480.223C1098.342,484.246 1099.334,489.42 1099.334,498.905L1099.334,594.902Z" style="fill:rgb(3,54,85);fill-rule:nonzero;"/>
                <path d="M1211.417,442.858C1211.417,454.068 1215.385,462.403 1220.911,462.403C1226.437,462.403 1230.405,454.068 1230.405,442.858C1230.405,431.649 1226.437,423.601 1220.911,423.601C1215.385,423.601 1211.417,431.649 1211.417,442.858ZM1212.693,594.902C1212.693,604.387 1211.701,609.56 1209.15,613.584L1209.15,615.021L1233.239,615.021L1233.239,613.584C1230.688,609.56 1229.697,604.387 1229.697,594.902L1229.697,471.313L1229.271,470.738L1209.15,478.785L1209.15,480.223C1211.701,484.246 1212.693,489.42 1212.693,498.905L1212.693,594.902Z" style="fill:rgb(3,54,85);fill-rule:nonzero;"/>
                <path d="M1246.7,594.902C1246.7,604.387 1245.709,609.56 1243.158,613.584L1243.158,615.021L1267.247,615.021L1267.247,613.584C1264.696,609.56 1263.704,604.387 1263.704,594.902L1263.704,419.578L1263.279,419.003L1243.158,427.05L1243.158,428.488C1245.709,432.511 1246.7,437.685 1246.7,447.17L1246.7,594.902ZM1265.263,533.682L1280.992,591.165C1285.809,608.985 1291.052,615.021 1301.68,615.021L1309.048,615.021L1309.048,613.584C1306.781,611.572 1304.797,606.686 1301.963,596.626L1280.425,517.874L1301.963,471.313L1279.291,471.313L1279.291,472.75C1284.392,476.199 1284.676,490.282 1276.174,510.114L1265.263,533.682Z" style="fill:rgb(3,54,85);fill-rule:nonzero;"/>
                <path d="M1327.469,547.191C1326.902,541.442 1326.619,535.119 1326.619,528.509C1326.619,500.629 1332.712,480.51 1341.78,480.51C1348.724,480.51 1353.4,492.581 1354.817,512.988L1327.469,547.191ZM1371.112,506.09C1371.112,485.109 1360.059,468.438 1345.323,468.438C1324.776,468.438 1309.048,500.342 1309.048,543.167C1309.048,585.992 1324.776,617.895 1344.473,617.895C1357.225,617.895 1367.428,604.387 1373.096,581.393L1371.395,578.519C1367.428,590.303 1360.201,597.489 1352.408,597.489C1341.072,597.489 1332.712,582.256 1328.886,558.975L1371.112,506.09Z" style="fill:rgb(3,54,85);fill-rule:nonzero;"/>
                <path d="M1385.14,594.902C1385.14,604.387 1384.148,609.56 1381.598,613.584L1381.598,615.021L1405.686,615.021L1405.686,613.584C1403.136,609.56 1402.144,604.387 1402.144,594.902L1402.144,514.425C1402.144,498.617 1407.103,486.546 1413.622,486.546C1419.856,486.546 1423.824,497.755 1424.816,518.449L1425.524,518.449L1431.476,478.211C1429.208,472.175 1425.099,468.438 1419.856,468.438C1412.63,468.438 1406.112,475.624 1402.144,487.121L1402.144,471.313L1401.719,470.738L1381.598,478.785L1381.598,480.223C1384.148,484.246 1385.14,489.42 1385.14,498.905L1385.14,594.902Z" style="fill:rgb(3,54,85);fill-rule:nonzero;"/>
                <path d="M1443.52,594.902C1443.52,604.387 1442.528,609.56 1439.978,613.584L1439.978,615.021L1464.066,615.021L1464.066,613.584C1461.516,609.56 1460.524,604.387 1460.524,594.902L1460.524,514.425C1460.524,498.617 1465.767,487.408 1473.418,487.408C1480.22,487.408 1484.613,496.318 1484.613,510.114L1484.613,594.902C1484.613,604.387 1483.621,609.56 1481.07,613.584L1481.07,615.021L1505.159,615.021L1505.159,613.584C1502.608,609.56 1501.617,604.387 1501.617,594.902L1501.617,510.114C1501.617,485.109 1493.115,468.438 1480.645,468.438C1472.143,468.438 1464.917,476.199 1460.524,487.983L1460.524,419.578L1460.099,419.003L1439.978,427.05L1439.978,428.488C1442.528,432.511 1443.52,437.685 1443.52,447.17L1443.52,594.902Z" style="fill:rgb(3,54,85);fill-rule:nonzero;"/>
                <path d="M1517.345,442.858C1517.345,454.068 1521.313,462.403 1526.839,462.403C1532.365,462.403 1536.333,454.068 1536.333,442.858C1536.333,431.649 1532.365,423.601 1526.839,423.601C1521.313,423.601 1517.345,431.649 1517.345,442.858ZM1518.62,594.902C1518.62,604.387 1517.628,609.56 1515.078,613.584L1515.078,615.021L1539.167,615.021L1539.167,613.584C1536.616,609.56 1535.624,604.387 1535.624,594.902L1535.624,471.313L1535.199,470.738L1515.078,478.785L1515.078,480.223C1517.628,484.246 1518.62,489.42 1518.62,498.905L1518.62,594.902Z" style="fill:rgb(3,54,85);fill-rule:nonzero;"/>
                <path d="M1552.628,594.902C1552.628,604.387 1551.636,609.56 1549.086,613.584L1549.086,615.021L1573.174,615.021L1573.174,613.584C1570.624,609.56 1569.632,604.387 1569.632,594.902L1569.632,419.578L1569.207,419.003L1549.086,427.05L1549.086,428.488C1551.636,432.511 1552.628,437.685 1552.628,447.17L1552.628,594.902Z" style="fill:rgb(3,54,85);fill-rule:nonzero;"/>
                <path d="M1614.409,428.2C1619.368,428.2 1622.486,439.122 1623.761,459.816L1624.469,459.816L1633.255,431.074C1627.728,421.59 1620.927,416.703 1614.125,416.703C1599.247,416.703 1588.053,440.272 1588.053,471.313L1580.968,471.313L1580.968,479.935L1588.053,479.935L1588.053,594.902C1588.053,604.387 1587.061,609.56 1584.51,613.584L1584.51,615.021L1608.599,615.021L1608.599,613.584C1606.049,609.56 1605.057,604.387 1605.057,594.902L1605.057,479.935L1618.801,479.935L1618.801,471.313L1605.057,471.313C1605.057,439.697 1609.308,428.2 1614.409,428.2Z" style="fill:rgb(3,54,85);fill-rule:nonzero;"/>
                <path d="M1643.174,547.191C1642.607,541.442 1642.323,535.119 1642.323,528.509C1642.323,500.629 1648.416,480.51 1657.485,480.51C1664.428,480.51 1669.104,492.581 1670.521,512.988L1643.174,547.191ZM1686.817,506.09C1686.817,485.109 1675.764,468.438 1661.028,468.438C1640.481,468.438 1624.753,500.342 1624.753,543.167C1624.753,585.992 1640.481,617.895 1660.177,617.895C1672.93,617.895 1683.133,604.387 1688.801,581.393L1687.1,578.519C1683.133,590.303 1675.906,597.489 1668.113,597.489C1656.777,597.489 1648.416,582.256 1644.591,558.975L1686.817,506.09Z" style="fill:rgb(3,54,85);fill-rule:nonzero;"/>
            </g>
            <g transform="matrix(5.356444,0,0,5.356444,200.071504,231.200744)">
                <path d="M19.06,5.194L18.217,6.312L12,1.624L1.582,9.48C1.507,9.559 1.46,9.661 1.45,9.771L1.45,21.712C1.451,21.865 1.577,21.991 1.73,21.992L25.849,21.992L25.849,23.392L1.728,23.392L1.726,23.392C0.808,23.389 0.053,22.635 0.05,21.716L0.05,21.714L0.05,9.747C0.05,9.734 0.05,9.721 0.051,9.707C0.079,9.221 0.294,8.764 0.652,8.433C0.669,8.417 0.687,8.402 0.705,8.388L11.578,0.188C11.828,-0 12.172,-0 12.422,0.188L19.06,5.194Z" style="fill:rgb(125,192,151);"/>
            </g>
            <g transform="matrix(0.309421,0,0,0.071739,113.298891,315.497778)">
                <path d="M775.774,609.693C775.774,612.493 776.293,615.013 777.007,615.013L802.586,615.013C803.3,615.013 803.819,612.493 803.819,609.693L803.819,601.572C803.819,598.772 803.3,596.252 802.586,596.252L780.772,596.252L780.772,524.848L799.405,524.848C800.054,524.848 800.638,522.608 800.638,519.528L800.638,511.408C800.638,508.607 800.054,506.087 799.405,506.087L780.772,506.087L780.772,437.764L802.586,437.764C803.3,437.764 803.819,435.244 803.819,432.443L803.819,424.323C803.819,421.523 803.3,419.003 802.586,419.003L777.007,419.003C776.293,419.003 775.774,421.523 775.774,424.323L775.774,609.693Z" style="fill:rgb(3,54,85);fill-rule:nonzero;"/>
                <path d="M815.375,609.693C815.375,612.493 815.959,615.013 816.609,615.013L819.206,615.013C819.855,615.013 820.439,612.493 820.439,609.693L820.439,424.323C820.439,421.523 819.855,419.003 819.206,419.003L816.609,419.003C815.959,419.003 815.375,421.523 815.375,424.323L815.375,609.693Z" style="fill:rgb(3,54,85);fill-rule:nonzero;"/>
                <path d="M835.111,609.693C835.111,612.493 835.695,615.013 836.345,615.013L838.617,615.013C839.331,615.013 839.85,612.493 839.85,609.693L839.85,457.365L839.915,457.365L869.324,615.573C869.584,617.253 869.909,617.813 870.363,617.813L870.882,617.813C871.532,617.813 872.116,615.573 872.116,612.773L872.116,424.323C872.116,421.523 871.532,419.003 870.882,419.003L868.61,419.003C867.896,419.003 867.377,421.523 867.377,424.323L867.377,573.571L867.247,573.571L838.357,418.443C838.097,416.763 837.773,416.203 837.318,416.203L836.345,416.203C835.695,416.203 835.111,418.443 835.111,421.243L835.111,609.693Z" style="fill:rgb(3,54,85);fill-rule:nonzero;"/>
                <path d="M886.788,609.693C886.788,612.493 887.307,615.013 888.021,615.013L890.553,615.013C891.203,615.013 891.787,612.493 891.787,609.693L891.787,533.249L910.419,533.249C911.068,533.249 911.653,530.728 911.653,527.928L911.653,519.808C911.653,517.008 911.068,514.488 910.419,514.488L891.787,514.488L891.787,437.764L913.6,437.764C914.314,437.764 914.834,435.244 914.834,432.443L914.834,424.323C914.834,421.523 914.314,419.003 913.6,419.003L888.021,419.003C887.307,419.003 886.788,421.523 886.788,424.323L886.788,609.693Z" style="fill:rgb(3,54,85);fill-rule:nonzero;"/>
                <path d="M917.69,615.013L920.287,615.013C920.871,615.013 921.261,613.333 921.391,611.933L926.13,565.73L949.177,565.73L953.981,611.933C954.111,613.333 954.5,615.013 955.085,615.013L957.681,615.013C958.655,615.013 959.175,611.373 958.785,607.732L939.179,419.283C938.984,417.603 938.66,416.203 938.075,416.203L937.426,416.203C936.842,416.203 936.517,417.603 936.322,419.283L916.587,607.732C916.197,611.373 916.716,615.013 917.69,615.013ZM927.948,548.369L937.426,456.525L937.945,456.525C941.127,487.046 944.243,517.848 947.424,548.369L927.948,548.369Z" style="fill:rgb(3,54,85);fill-rule:nonzero;"/>
                <path d="M964.044,517.288C964.044,573.291 974.496,617.813 987.48,617.813C993.258,617.813 998.646,607.452 1002.931,590.652C1003.386,588.691 1003.515,584.771 1002.996,583.091L1001.503,576.651C1000.983,574.411 1000.464,574.131 999.815,576.371C996.374,588.971 993.063,597.372 987.415,597.372C977.158,597.372 969.302,560.13 969.302,517.008C969.302,473.606 977.158,436.364 987.415,436.364C992.154,436.364 996.439,444.764 999.815,457.365C1000.464,460.165 1000.983,460.445 1001.503,457.645L1003.256,450.084C1003.775,447.844 1003.71,444.484 1003.191,442.244C998.776,426.003 994.037,416.203 987.48,416.203C974.496,416.203 964.044,461.285 964.044,517.288Z" style="fill:rgb(3,54,85);fill-rule:nonzero;"/>
                <path d="M1014.941,609.693C1014.941,612.493 1015.526,615.013 1016.175,615.013L1018.707,615.013C1019.421,615.013 1019.94,612.493 1019.94,609.693L1019.94,524.848L1046.298,524.848L1046.298,609.693C1046.298,612.493 1046.818,615.013 1047.532,615.013L1050.064,615.013C1050.713,615.013 1051.297,612.493 1051.297,609.693L1051.297,424.323C1051.297,421.523 1050.713,419.003 1050.064,419.003L1047.532,419.003C1046.818,419.003 1046.298,421.523 1046.298,424.323L1046.298,506.087L1019.94,506.087L1019.94,424.323C1019.94,421.523 1019.421,419.003 1018.707,419.003L1016.175,419.003C1015.526,419.003 1014.941,421.523 1014.941,424.323L1014.941,609.693Z" style="fill:rgb(3,54,85);fill-rule:nonzero;"/>
                <path d="M1087.328,506.927L1087.328,438.324L1097.196,438.324C1102.519,438.324 1105.701,451.764 1105.701,471.925C1105.701,491.526 1102.519,506.927 1097.196,506.927L1087.328,506.927ZM1087.198,596.252L1087.198,526.248L1098.365,526.248C1103.299,526.248 1107.194,540.809 1107.194,560.69C1107.194,580.851 1103.883,596.252 1098.624,596.252L1087.198,596.252ZM1104.922,515.048C1107.908,507.207 1111.219,493.207 1111.219,470.525C1111.219,441.124 1105.96,419.003 1098.04,419.003L1083.692,419.003C1082.978,419.003 1082.459,421.523 1082.459,424.323L1082.459,609.693C1082.459,612.493 1082.978,615.013 1083.692,615.013L1098.949,615.013C1106.999,615.013 1112.647,592.332 1112.647,560.97C1112.647,535.489 1108.362,521.768 1104.922,515.608L1104.922,515.048Z" style="fill:rgb(3,54,85);fill-rule:nonzero;"/>
                <path d="M1125.112,609.693C1125.112,612.493 1125.631,615.013 1126.345,615.013L1151.924,615.013C1152.638,615.013 1153.158,612.493 1153.158,609.693L1153.158,601.572C1153.158,598.772 1152.638,596.252 1151.924,596.252L1130.111,596.252L1130.111,524.848L1148.743,524.848C1149.392,524.848 1149.977,522.608 1149.977,519.528L1149.977,511.408C1149.977,508.607 1149.392,506.087 1148.743,506.087L1130.111,506.087L1130.111,437.764L1151.924,437.764C1152.638,437.764 1153.158,435.244 1153.158,432.443L1153.158,424.323C1153.158,421.523 1152.638,419.003 1151.924,419.003L1126.345,419.003C1125.631,419.003 1125.112,421.523 1125.112,424.323L1125.112,609.693Z" style="fill:rgb(3,54,85);fill-rule:nonzero;"/>
                <path d="M1162.247,595.132C1163.091,598.492 1168.284,617.813 1175.945,617.813C1183.541,617.813 1189.968,595.412 1189.968,566.29C1189.968,533.809 1184.32,519.528 1175.555,504.127C1170.102,494.327 1166.791,485.646 1166.791,465.765C1166.791,454.005 1168.868,434.964 1175.75,434.964C1179.386,434.964 1181.658,439.164 1184.385,446.164C1185.423,448.684 1186.137,448.684 1186.657,444.764L1187.306,440.004C1188.02,434.684 1187.306,431.323 1186.916,430.483C1186.916,430.483 1182.177,416.203 1175.815,416.203C1165.493,416.203 1161.987,447.004 1161.987,466.045C1161.987,497.967 1166.272,509.727 1173.413,522.888C1180.879,536.609 1184.774,547.809 1184.774,567.13C1184.774,584.771 1181.333,599.052 1176.075,599.052C1170.297,599.052 1165.363,580.291 1164.908,578.611C1163.999,575.251 1163.48,576.651 1162.831,580.291L1161.857,585.611C1160.948,590.652 1161.727,593.172 1162.247,595.132Z" style="fill:rgb(3,54,85);fill-rule:nonzero;"/>
                <path d="M1198.992,595.132C1199.836,598.492 1205.029,617.813 1212.69,617.813C1220.286,617.813 1226.713,595.412 1226.713,566.29C1226.713,533.809 1221.065,519.528 1212.3,504.127C1206.847,494.327 1203.536,485.646 1203.536,465.765C1203.536,454.005 1205.614,434.964 1212.495,434.964C1216.131,434.964 1218.403,439.164 1221.13,446.164C1222.168,448.684 1222.882,448.684 1223.402,444.764L1224.051,440.004C1224.765,434.684 1224.051,431.323 1223.662,430.483C1223.662,430.483 1218.922,416.203 1212.56,416.203C1202.238,416.203 1198.732,447.004 1198.732,466.045C1198.732,497.967 1203.017,509.727 1210.158,522.888C1217.624,536.609 1221.519,547.809 1221.519,567.13C1221.519,584.771 1218.078,599.052 1212.82,599.052C1207.042,599.052 1202.108,580.291 1201.653,578.611C1200.745,575.251 1200.225,576.651 1199.576,580.291L1198.602,585.611C1197.693,590.652 1198.472,593.172 1198.992,595.132Z" style="fill:rgb(3,54,85);fill-rule:nonzero;"/>
                <path d="M1237.879,609.693C1237.879,612.493 1238.399,615.013 1239.113,615.013L1264.691,615.013C1265.406,615.013 1265.925,612.493 1265.925,609.693L1265.925,601.572C1265.925,598.772 1265.406,596.252 1264.691,596.252L1242.878,596.252L1242.878,524.848L1261.51,524.848C1262.16,524.848 1262.744,522.608 1262.744,519.528L1262.744,511.408C1262.744,508.607 1262.16,506.087 1261.51,506.087L1242.878,506.087L1242.878,437.764L1264.691,437.764C1265.406,437.764 1265.925,435.244 1265.925,432.443L1265.925,424.323C1265.925,421.523 1265.406,419.003 1264.691,419.003L1239.113,419.003C1238.399,419.003 1237.879,421.523 1237.879,424.323L1237.879,609.693Z" style="fill:rgb(3,54,85);fill-rule:nonzero;"/>
                <path d="M1277.481,609.693C1277.481,612.493 1278,615.013 1278.714,615.013L1281.246,615.013C1281.895,615.013 1282.48,612.493 1282.48,609.693L1282.48,538.289L1294.88,538.289L1303.319,610.813C1303.644,613.613 1303.968,615.013 1304.747,615.013L1307.864,615.013C1308.967,615.013 1309.422,610.533 1308.967,606.892L1300.073,535.769C1305.721,525.968 1309.681,504.407 1309.681,478.646C1309.681,445.324 1303.319,419.003 1295.529,419.003L1278.714,419.003C1278,419.003 1277.481,421.523 1277.481,424.323L1277.481,609.693ZM1282.61,519.808L1282.61,439.444L1295.204,439.444C1300.203,439.444 1304.553,457.645 1304.553,478.926C1304.553,501.887 1300.203,519.808 1295.204,519.808L1282.61,519.808Z" style="fill:rgb(3,54,85);fill-rule:nonzero;"/>
                <path d="M1336.234,595.132C1337.078,598.492 1342.272,617.813 1349.932,617.813C1357.528,617.813 1363.955,595.412 1363.955,566.29C1363.955,533.809 1358.307,519.528 1349.543,504.127C1344.089,494.327 1340.778,485.646 1340.778,465.765C1340.778,454.005 1342.856,434.964 1349.738,434.964C1353.373,434.964 1355.645,439.164 1358.372,446.164C1359.411,448.684 1360.125,448.684 1360.644,444.764L1361.293,440.004C1362.008,434.684 1361.293,431.323 1360.904,430.483C1360.904,430.483 1356.165,416.203 1349.802,416.203C1339.48,416.203 1335.974,447.004 1335.974,466.045C1335.974,497.967 1340.259,509.727 1347.4,522.888C1354.866,536.609 1358.762,547.809 1358.762,567.13C1358.762,584.771 1355.321,599.052 1350.062,599.052C1344.284,599.052 1339.35,580.291 1338.896,578.611C1337.987,575.251 1337.468,576.651 1336.818,580.291L1335.845,585.611C1334.936,590.652 1335.715,593.172 1336.234,595.132Z" style="fill:rgb(3,54,85);fill-rule:nonzero;"/>
                <path d="M1383.107,609.693C1383.107,612.493 1383.691,615.013 1384.34,615.013L1386.807,615.013C1387.456,615.013 1388.041,612.493 1388.041,609.693L1388.041,437.764L1399.337,437.764C1400.051,437.764 1400.57,435.244 1400.57,432.443L1400.57,424.323C1400.57,421.523 1400.051,419.003 1399.337,419.003L1371.811,419.003C1371.096,419.003 1370.577,421.523 1370.577,424.323L1370.577,432.443C1370.577,435.244 1371.096,437.764 1371.811,437.764L1383.107,437.764L1383.107,609.693Z" style="fill:rgb(3,54,85);fill-rule:nonzero;"/>
                <path d="M1410.244,543.889C1410.244,586.451 1417.19,617.813 1427.383,617.813C1437.64,617.813 1444.652,586.451 1444.652,543.889L1444.652,424.323C1444.652,421.523 1444.067,419.003 1443.418,419.003L1440.951,419.003C1440.237,419.003 1439.718,421.523 1439.718,424.323L1439.718,542.769C1439.718,574.691 1435.043,597.932 1427.383,597.932C1419.787,597.932 1415.178,574.131 1415.178,542.209L1415.178,424.323C1415.178,421.523 1414.658,419.003 1413.944,419.003L1411.477,419.003C1410.828,419.003 1410.244,421.523 1410.244,424.323L1410.244,543.889Z" style="fill:rgb(3,54,85);fill-rule:nonzero;"/>
                <path d="M1458.869,609.693C1458.869,612.493 1459.389,615.013 1460.038,615.013L1474.58,615.013C1487.11,615.013 1497.367,571.051 1497.367,516.728C1497.367,462.965 1487.11,419.003 1474.58,419.003L1460.038,419.003C1459.389,419.003 1458.869,421.523 1458.869,424.323L1458.869,609.693ZM1463.803,595.692L1463.803,438.044L1473.996,438.044C1484.643,438.044 1492.109,470.805 1492.109,516.728C1492.109,562.93 1484.643,595.692 1473.996,595.692L1463.803,595.692Z" style="fill:rgb(3,54,85);fill-rule:nonzero;"/>
                <path d="M1509.248,609.693C1509.248,612.493 1509.832,615.013 1510.481,615.013L1513.078,615.013C1513.727,615.013 1514.312,612.493 1514.312,609.693L1514.312,424.323C1514.312,421.523 1513.727,419.003 1513.078,419.003L1510.481,419.003C1509.832,419.003 1509.248,421.523 1509.248,424.323L1509.248,609.693Z" style="fill:rgb(3,54,85);fill-rule:nonzero;"/>
                <path d="M1528.984,609.693C1528.984,612.493 1529.503,615.013 1530.217,615.013L1555.796,615.013C1556.51,615.013 1557.029,612.493 1557.029,609.693L1557.029,601.572C1557.029,598.772 1556.51,596.252 1555.796,596.252L1533.983,596.252L1533.983,524.848L1552.615,524.848C1553.264,524.848 1553.848,522.608 1553.848,519.528L1553.848,511.408C1553.848,508.607 1553.264,506.087 1552.615,506.087L1533.983,506.087L1533.983,437.764L1555.796,437.764C1556.51,437.764 1557.029,435.244 1557.029,432.443L1557.029,424.323C1557.029,421.523 1556.51,419.003 1555.796,419.003L1530.217,419.003C1529.503,419.003 1528.984,421.523 1528.984,424.323L1528.984,609.693Z" style="fill:rgb(3,54,85);fill-rule:nonzero;"/>
                <path d="M1568.585,609.693C1568.585,612.493 1569.105,615.013 1569.819,615.013L1572.351,615.013C1573,615.013 1573.584,612.493 1573.584,609.693L1573.584,538.289L1585.984,538.289L1594.424,610.813C1594.748,613.613 1595.073,615.013 1595.852,615.013L1598.968,615.013C1600.072,615.013 1600.526,610.533 1600.072,606.892L1591.178,535.769C1596.826,525.968 1600.786,504.407 1600.786,478.646C1600.786,445.324 1594.424,419.003 1586.633,419.003L1569.819,419.003C1569.105,419.003 1568.585,421.523 1568.585,424.323L1568.585,609.693ZM1573.714,519.808L1573.714,439.444L1586.309,439.444C1591.308,439.444 1595.657,457.645 1595.657,478.926C1595.657,501.887 1591.308,519.808 1586.309,519.808L1573.714,519.808Z" style="fill:rgb(3,54,85);fill-rule:nonzero;"/>
                <path d="M1612.991,609.693C1612.991,612.493 1613.51,615.013 1614.225,615.013L1639.803,615.013C1640.517,615.013 1641.037,612.493 1641.037,609.693L1641.037,601.572C1641.037,598.772 1640.517,596.252 1639.803,596.252L1617.99,596.252L1617.99,524.848L1636.622,524.848C1637.271,524.848 1637.856,522.608 1637.856,519.528L1637.856,511.408C1637.856,508.607 1637.271,506.087 1636.622,506.087L1617.99,506.087L1617.99,437.764L1639.803,437.764C1640.517,437.764 1641.037,435.244 1641.037,432.443L1641.037,424.323C1641.037,421.523 1640.517,419.003 1639.803,419.003L1614.225,419.003C1613.51,419.003 1612.991,421.523 1612.991,424.323L1612.991,609.693Z" style="fill:rgb(3,54,85);fill-rule:nonzero;"/>
                <path d="M1652.593,609.693C1652.593,612.493 1653.177,615.013 1653.826,615.013L1656.098,615.013C1656.812,615.013 1657.332,612.493 1657.332,609.693L1657.332,457.365L1657.397,457.365L1686.806,615.573C1687.066,617.253 1687.39,617.813 1687.845,617.813L1688.364,617.813C1689.013,617.813 1689.597,615.573 1689.597,612.773L1689.597,424.323C1689.597,421.523 1689.013,419.003 1688.364,419.003L1686.092,419.003C1685.378,419.003 1684.858,421.523 1684.858,424.323L1684.858,573.571L1684.728,573.571L1655.839,418.443C1655.579,416.763 1655.254,416.203 1654.8,416.203L1653.826,416.203C1653.177,416.203 1652.593,418.443 1652.593,421.243L1652.593,609.693Z" style="fill:rgb(3,54,85);fill-rule:nonzero;"/>
            </g>
        </g>
    </g>
</svg>
