<?xml version="1.0" encoding="UTF-8" standalone="no"?>
<!DOCTYPE svg PUBLIC "-//W3C//DTD SVG 1.1//EN" "http://www.w3.org/Graphics/SVG/1.1/DTD/svg11.dtd">
<svg width="100%" height="100%" viewBox="0 0 14 14" version="1.1" xmlns="http://www.w3.org/2000/svg" xmlns:xlink="http://www.w3.org/1999/xlink" xml:space="preserve" xmlns:serif="http://www.serif.com/" style="fill-rule:evenodd;clip-rule:evenodd;stroke-linejoin:round;stroke-miterlimit:2;">
    <g id="annoncement-megaphone">
        <path d="M3.149,12.376L1.441,12.773C1.227,12.822 1.005,12.726 0.895,12.535L0.286,11.48C0.176,11.29 0.203,11.05 0.354,10.889L6.767,4.029L6.749,3.997C6.611,3.758 6.693,3.452 6.932,3.314C7.171,3.176 7.477,3.258 7.615,3.497L7.805,3.826C7.814,3.841 7.823,3.857 7.832,3.873L11.257,9.805C11.266,9.82 11.274,9.835 11.283,9.85L11.472,10.178C11.61,10.417 11.528,10.723 11.289,10.861C11.05,10.999 10.744,10.917 10.606,10.678L10.589,10.648L6.999,11.482C7.089,11.807 7.093,12.152 7.006,12.484C6.876,12.977 6.556,13.398 6.116,13.655C5.676,13.911 5.152,13.983 4.659,13.853C4.166,13.724 3.745,13.404 3.488,12.963L3.487,12.962L3.149,12.376ZM7.29,4.934L1.337,11.301L1.576,11.715L3.259,11.324C3.275,11.32 3.292,11.316 3.308,11.312L10.066,9.743L7.29,4.934ZM6.023,11.709L4.167,12.139L4.352,12.46C4.475,12.671 4.677,12.824 4.913,12.886C5.15,12.948 5.401,12.914 5.612,12.791C5.823,12.668 5.976,12.466 6.039,12.23C6.084,12.057 6.078,11.876 6.023,11.709ZM7.944,1.837C7.944,2.113 7.72,2.337 7.444,2.337C7.168,2.337 6.944,2.113 6.944,1.837L6.944,0.583C6.944,0.308 7.168,0.083 7.444,0.083C7.72,0.083 7.944,0.308 7.944,0.583L7.944,1.837ZM12.247,7.14C11.971,7.14 11.747,6.916 11.746,6.64C11.746,6.364 11.971,6.14 12.246,6.14L13.5,6.14C13.776,6.14 14,6.364 14,6.64C14,6.916 13.776,7.14 13.5,7.14L12.247,7.14ZM1.389,7.14C1.113,7.14 0.889,6.916 0.889,6.64C0.889,6.364 1.113,6.14 1.389,6.14L2.642,6.14C2.918,6.14 3.142,6.364 3.142,6.64C3.142,6.916 2.918,7.14 2.642,7.14L1.389,7.14ZM2.808,2.711C2.612,2.516 2.612,2.199 2.808,2.004C3.003,1.809 3.32,1.809 3.515,2.004L4.401,2.89C4.596,3.085 4.596,3.402 4.401,3.597C4.206,3.792 3.889,3.792 3.694,3.597L2.808,2.711ZM11.194,3.597C10.998,3.792 10.682,3.792 10.486,3.597C10.291,3.402 10.291,3.085 10.486,2.89L11.373,2.004C11.568,1.808 11.885,1.808 12.08,2.004C12.275,2.199 12.275,2.516 12.08,2.711L11.194,3.597Z"/>
    </g>
</svg>
