<svg xmlns="http://www.w3.org/2000/svg" viewBox="-1.25 -1.25 40 40" id="Bicycle-Sports--Streamline-Streamline-3.0" height="40" width="40">
  <desc>
    Bicycle Sports Streamline Icon: https://streamlinehq.com
  </desc>
  <defs></defs>
  <title>bicycle-sports</title>
  <path d="M1.171875 23.8859375a5.859375 5.859375 0 1 0 11.71875 0 5.859375 5.859375 0 1 0 -11.71875 0" fill="none" stroke="#000000" stroke-linecap="round" stroke-linejoin="round" stroke-width="2.5"></path>
  <path d="M24.609375 23.8859375a5.859375 5.859375 0 1 0 11.71875 0 5.859375 5.859375 0 1 0 -11.71875 0" fill="none" stroke="#000000" stroke-linecap="round" stroke-linejoin="round" stroke-width="2.5"></path>
  <path d="M31.640625 13.3390625a2.34375 2.34375 0 0 0 0 -4.6875h-5.325a1.1734375 1.1734375 0 0 0 -1.09375 1.5921874999999999l5.246875 13.6421875" fill="none" stroke="#000000" stroke-linecap="round" stroke-linejoin="round" stroke-width="2.5"></path>
  <path d="M16.40625 8.6515625 8.3609375 6.640625" fill="none" stroke="#000000" stroke-linecap="round" stroke-linejoin="round" stroke-width="2.5"></path>
  <path d="M16.4625 19.428124999999998 11.71875 7.4796875" fill="none" stroke="#000000" stroke-linecap="round" stroke-linejoin="round" stroke-width="2.5"></path>
  <path d="m7.03125 23.8859375 19.83125 -9.375" fill="none" stroke="#000000" stroke-linecap="round" stroke-linejoin="round" stroke-width="2.5"></path>
</svg>