<svg xmlns="http://www.w3.org/2000/svg" viewBox="-1.25 -1.25 40 40" id="Car-Garage--Streamline-Streamline-3.0" height="40" width="40">
  <desc>
    Car Garage Streamline Icon: https://streamlinehq.com
  </desc>
  <defs></defs>
  <title>car-garage</title>
  <path d="M1.171875 12.890625 18.75 1.171875l17.578125 11.71875" fill="none" stroke="#000000" stroke-linecap="round" stroke-linejoin="round" stroke-width="2.5"></path>
  <path d="M8.203125 33.984375a2.34375 2.34375 0 1 0 4.6875 0 2.34375 2.34375 0 1 0 -4.6875 0" fill="none" stroke="#000000" stroke-linecap="round" stroke-linejoin="round" stroke-width="2.5"></path>
  <path d="M26.953125 33.984375a2.34375 2.34375 0 1 0 4.6875 0 2.34375 2.34375 0 1 0 -4.6875 0" fill="none" stroke="#000000" stroke-linecap="round" stroke-linejoin="round" stroke-width="2.5"></path>
  <path d="m12.890625 33.984375 14.0625 0" fill="none" stroke="#000000" stroke-linecap="round" stroke-linejoin="round" stroke-width="2.5"></path>
  <path d="M31.640625 33.984375h2.34375a2.34375 2.34375 0 0 0 2.34375 -2.34375v-2.34375a4.6875 4.6875 0 0 0 -4.6875 -4.6875l-2.8671875 -5.7359374999999995a2.34375 2.34375 0 0 0 -2.0968750000000003 -1.2953124999999999h-12.34375a2.34375 2.34375 0 0 0 -2.0953125 1.2953124999999999L9.375 24.609375H5.859375a4.6875 4.6875 0 0 0 -4.6875 4.6875v2.34375a2.34375 2.34375 0 0 0 2.34375 2.34375h4.6875" fill="none" stroke="#000000" stroke-linecap="round" stroke-linejoin="round" stroke-width="2.5"></path>
  <path d="m9.375 24.609375 22.265625 0" fill="none" stroke="#000000" stroke-linecap="round" stroke-linejoin="round" stroke-width="2.5"></path>
</svg>