<svg xmlns="http://www.w3.org/2000/svg" viewBox="-1.25 -1.25 40 40" id="Presentation--Streamline-Streamline-3.0" height="40" width="40">
  <desc>
    Presentation Streamline Icon: https://streamlinehq.com
  </desc>
  <defs></defs>
  <title>presentation</title>
  <path d="M27.1484375 28.7109375a4.1015625 4.1015625 0 1 0 8.203125 0 4.1015625 4.1015625 0 1 0 -8.203125 0" fill="none" stroke="#000000" stroke-linecap="round" stroke-linejoin="round" stroke-width="2.5"></path>
  <path d="M36.3265625 36.328125a6.6703125000000005 6.6703125000000005 0 0 0 -10.15625 0" fill="none" stroke="#000000" stroke-linecap="round" stroke-linejoin="round" stroke-width="2.5"></path>
  <path d="M2.1453125 28.7109375a4.1015625 4.1015625 0 1 0 8.203125 0 4.1015625 4.1015625 0 1 0 -8.203125 0" fill="none" stroke="#000000" stroke-linecap="round" stroke-linejoin="round" stroke-width="2.5"></path>
  <path d="M11.3234375 36.328125a6.6703125000000005 6.6703125000000005 0 0 0 -10.15625 0" fill="none" stroke="#000000" stroke-linecap="round" stroke-linejoin="round" stroke-width="2.5"></path>
  <path d="M14.965625 5.2734375a4.1015625 4.1015625 0 1 0 8.203125 0 4.1015625 4.1015625 0 1 0 -8.203125 0" fill="none" stroke="#000000" stroke-linecap="round" stroke-linejoin="round" stroke-width="2.5"></path>
  <path d="M24.14375 12.890625a6.6703125000000005 6.6703125000000005 0 0 0 -10.15625 0" fill="none" stroke="#000000" stroke-linecap="round" stroke-linejoin="round" stroke-width="2.5"></path>
  <path d="m9.0234375 25.692187500000003 1.3015625 -6.875000000000001a1.4609375 1.4609375 0 0 1 1.3921875 -1.25h14.0625a1.4609375 1.4609375 0 0 1 1.3921875 1.25l1.3015625 6.875000000000001" fill="none" stroke="#000000" stroke-linecap="round" stroke-linejoin="round" stroke-width="2.5"></path>
</svg>