<svg id="Fitness-Weights--Streamline-Streamline-3.0" xmlns="http://www.w3.org/2000/svg" viewBox="-1.25 -1.25 40 40" height="40" width="40">
  <desc>
    Fitness Weights Streamline Icon: https://streamlinehq.com
  </desc>
  <defs></defs>
  <title>fitness-weights</title>
  <path d="m12.890625 17.96875 11.71875 0" fill="none" stroke="#000000" stroke-linecap="round" stroke-linejoin="round" stroke-width="2.5"></path>
  <path d="M10.546875 27.34375a2.34375 2.34375 0 0 1 -2.34375 -2.34375V10.9375a2.34375 2.34375 0 0 1 4.6875 0v14.0625a2.34375 2.34375 0 0 1 -2.34375 2.34375Z" fill="none" stroke="#000000" stroke-linecap="round" stroke-linejoin="round" stroke-width="2.5"></path>
  <path d="m3.515625 17.96875 -2.34375 0" fill="none" stroke="#000000" stroke-linecap="round" stroke-linejoin="round" stroke-width="2.5"></path>
  <path d="M5.859375 13.28125a2.34375 2.34375 0 0 0 -2.34375 2.34375v4.6875a2.34375 2.34375 0 0 0 4.6875 0v-4.6875a2.34375 2.34375 0 0 0 -2.34375 -2.34375Z" fill="none" stroke="#000000" stroke-linecap="round" stroke-linejoin="round" stroke-width="2.5"></path>
  <path d="M26.953125 27.34375a2.34375 2.34375 0 0 0 2.34375 -2.34375V10.9375a2.34375 2.34375 0 0 0 -4.6875 0v14.0625a2.34375 2.34375 0 0 0 2.34375 2.34375Z" fill="none" stroke="#000000" stroke-linecap="round" stroke-linejoin="round" stroke-width="2.5"></path>
  <path d="m33.984375 17.96875 2.34375 0" fill="none" stroke="#000000" stroke-linecap="round" stroke-linejoin="round" stroke-width="2.5"></path>
  <path d="M31.640625 13.28125a2.34375 2.34375 0 0 1 2.34375 2.34375v4.6875a2.34375 2.34375 0 0 1 -4.6875 0v-4.6875a2.34375 2.34375 0 0 1 2.34375 -2.34375Z" fill="none" stroke="#000000" stroke-linecap="round" stroke-linejoin="round" stroke-width="2.5"></path>
</svg>