<svg xmlns="http://www.w3.org/2000/svg" fill="none" viewBox="-1.25 -1.25 40 40" id="Laundry-Machine-2--Streamline-Streamline-3.0" height="40" width="40">
  <desc>
    Laundry Machine 2 Streamline Icon: https://streamlinehq.com
  </desc>
  <path stroke="#000000" stroke-linecap="round" stroke-linejoin="round" d="M31.640625 1.171875H5.859375a2.34375 2.34375 0 0 0 -2.34375 2.34375v30.46875a2.34375 2.34375 0 0 0 2.34375 2.34375h25.78125a2.34375 2.34375 0 0 0 2.34375 -2.34375V3.515625a2.34375 2.34375 0 0 0 -2.34375 -2.34375Z" stroke-width="2.5"></path>
  <path stroke="#000000" stroke-linecap="round" stroke-linejoin="round" d="M8.203125 5.859375h4.6875" stroke-width="2.5"></path>
  <path stroke="#000000" stroke-linecap="round" stroke-linejoin="round" d="M3.515625 10.546875h30.46875" stroke-width="2.5"></path>
  <path stroke="#000000" stroke-linecap="round" stroke-linejoin="round" d="M18.75 31.640625a8.203125 8.203125 0 1 0 0 -16.40625 8.203125 8.203125 0 0 0 0 16.40625Z" stroke-width="2.5"></path>
  <path stroke="#000000" d="M21.09375 6.4453125a0.5859375 0.5859375 0 0 1 0 -1.171875" stroke-width="2.5"></path>
  <path stroke="#000000" d="M21.09375 6.4453125a0.5859375 0.5859375 0 0 0 0 -1.171875" stroke-width="2.5"></path>
  <path stroke="#000000" d="M28.125 6.4453125a0.5859375 0.5859375 0 0 1 0 -1.171875" stroke-width="2.5"></path>
  <path stroke="#000000" d="M28.125 6.4453125a0.5859375 0.5859375 0 0 0 0 -1.171875" stroke-width="2.5"></path>
  <path stroke="#000000" stroke-linecap="round" stroke-linejoin="round" d="M15.234375 23.4375A3.515625 3.515625 0 0 1 18.75 19.921875" stroke-width="2.5"></path>
</svg>