<svg xmlns="http://www.w3.org/2000/svg" viewBox="-1.25 -1.25 40 40" id="Modern-Music-Guitar--Streamline-Streamline-3.0" height="40" width="40">
  <desc>
    Modern Music Guitar Streamline Icon: https://streamlinehq.com
  </desc>
  <defs></defs>
  <title>modern-music-guitar</title>
  <path d="M18.75 1.171875h3.515625a2.34375 2.34375 0 0 1 2.34375 2.34375v11.71875a2.34375 2.34375 0 0 1 -2.34375 2.34375h-18.75a2.34375 2.34375 0 0 1 -2.34375 -2.34375v-11.71875a2.34375 2.34375 0 0 1 2.34375 -2.34375h4.6875" fill="none" stroke="#000000" stroke-linecap="round" stroke-linejoin="round" stroke-width="2.5"></path>
  <path d="M8.203125 10.546875a2.34375 2.34375 0 1 0 4.6875 0 2.34375 2.34375 0 1 0 -4.6875 0" fill="none" stroke="#000000" stroke-linecap="round" stroke-linejoin="round" stroke-width="2.5"></path>
  <path d="m12.890625 10.546875 0 -7.03125 3.515625 2.34375" fill="none" stroke="#000000" stroke-linecap="round" stroke-linejoin="round" stroke-width="2.5"></path>
  <path d="m10.546875 22.265625 -9.375 0 0 4.6875 7.03125 0" fill="none" stroke="#000000" stroke-linecap="round" stroke-linejoin="round" stroke-width="2.5"></path>
  <path d="m12.890625 17.578125 0 2.34375" fill="none" stroke="#000000" stroke-linecap="round" stroke-linejoin="round" stroke-width="2.5"></path>
  <path d="m18.75 29.296875 2.34375 2.34375" fill="none" stroke="#000000" stroke-linecap="round" stroke-linejoin="round" stroke-width="2.5"></path>
  <path d="M36.1046875 16.232812499999998a0.7640625 0.7640625 0 0 0 0 -1.0812499999999998l-1.2125000000000001 -1.2109375a0.7640625 0.7640625 0 0 0 -1.0812499999999998 0L26.040625000000002 21.71875a3.9296875 3.9296875 0 0 0 -6.10625 2.828125c-6.2406250000000005 -1.3390625 -8.1421875 5.5296875000000005 -4.05 9.621875000000001s10.953125 2.15625 9.6203125 -4.0515625a3.9265624999999997 3.9265624999999997 0 0 0 2.8296875 -6.10625Z" fill="none" stroke="#000000" stroke-linecap="round" stroke-linejoin="round" stroke-width="2.5"></path>
  <path d="m3.515625 26.953125 -2.34375 4.6875" fill="none" stroke="#000000" stroke-linecap="round" stroke-linejoin="round" stroke-width="2.5"></path>
</svg>