<svg id="Party-Music-Dance--Streamline-Streamline-3.0" xmlns="http://www.w3.org/2000/svg" viewBox="-1.25 -1.25 40 40" height="40" width="40">
  <desc>
    Party Music Dance Streamline Icon: https://streamlinehq.com
  </desc>
  <defs></defs>
  <title>party-music-dance</title>
  <path d="M29.296875 18.75a14.2640625 14.2640625 0 0 0 6.3453125 -3.6968750000000004 2.34375 2.34375 0 1 0 -3.315625 -3.3140625 9.7296875 9.7296875 0 0 1 -6.8296875 2.8296875h-0.603125a9.7296875 9.7296875 0 0 1 -6.8296875 -2.8296875 2.34375 2.34375 0 1 0 -3.315625 3.3140625A14.2640625 14.2640625 0 0 0 21.09375 18.75v3.9843749999999996l-3.8953124999999997 2.784375a4.6875 4.6875 0 0 0 -1.9640624999999998 3.8125v4.653125a2.34375 2.34375 0 0 0 4.6875 0v-4.653125l4.6875 -3.3484374999999997v2.34375a4.7234375 4.7234375 0 0 0 1.3734375 3.3140625l4 4.0015625a2.34375 2.34375 0 0 0 3.315625 -3.315625l-4.0015625 -4Z" fill="none" stroke="#000000" stroke-linecap="round" stroke-linejoin="round" stroke-width="2.5"></path>
  <path d="M21.6796875 5.859375a4.1015625 4.1015625 0 1 0 8.203125 0 4.1015625 4.1015625 0 1 0 -8.203125 0" fill="none" stroke="#000000" stroke-linecap="round" stroke-linejoin="round" stroke-width="2.5"></path>
  <path d="M1.171875 10.546875a2.34375 2.34375 0 1 0 4.6875 0 2.34375 2.34375 0 1 0 -4.6875 0" fill="none" stroke="#000000" stroke-linecap="round" stroke-linejoin="round" stroke-width="2.5"></path>
  <path d="M7.634375 1.171875A2.34375 2.34375 0 0 0 5.859375 3.4453125V10.546875" fill="none" stroke="#000000" stroke-linecap="round" stroke-linejoin="round" stroke-width="2.5"></path>
  <path d="M5.859375 24.609375a2.34375 2.34375 0 1 0 4.6875 0 2.34375 2.34375 0 1 0 -4.6875 0" fill="none" stroke="#000000" stroke-linecap="round" stroke-linejoin="round" stroke-width="2.5"></path>
  <path d="m10.546875 18.75 0 5.859375" fill="none" stroke="#000000" stroke-linecap="round" stroke-linejoin="round" stroke-width="2.5"></path>
</svg>