<svg id="Plant-Pot-1--Streamline-Streamline-3.0" xmlns="http://www.w3.org/2000/svg" viewBox="-1.25 -1.25 40 40" height="40" width="40">
  <desc>
    Plant Pot 1 Streamline Icon: https://streamlinehq.com
  </desc>
  <defs></defs>
  <title>plant-pot-1</title>
  <path d="M16.6453125 14.0375s-2.390625 4.09375 -5.859375 3.515625c-7.03125 -1.171875 -5.859375 -10.546875 -8.203125 -14.0625a15.542187499999999 15.542187499999999 0 0 1 14.0625 1.171875c3.5109375 2.34375 3.5109375 5.859375 0 9.375Z" fill="none" stroke="#000000" stroke-linecap="round" stroke-linejoin="round" stroke-width="2.5"></path>
  <path d="M24.3359375 17.471875S25.996875000000003 20.3125 28.40625 19.9140625c4.8828125 -0.8140625 4.0625 -7.324999999999999 5.6968749999999995 -9.7671875a10.801562500000001 10.801562500000001 0 0 0 -9.7671875 0.8140625c-2.4406250000000003 1.628125 -2.4406250000000003 4.0703125 0 6.5109375Z" fill="none" stroke="#000000" stroke-linecap="round" stroke-linejoin="round" stroke-width="2.5"></path>
  <path d="M11.9578125 9.35s7.03125 3.515625 8.203125 15.234375c2.34375 -7.03125 5.859375 -9.375 5.859375 -9.375" fill="none" stroke="#000000" stroke-linecap="round" stroke-linejoin="round" stroke-width="2.5"></path>
  <path d="M25.059375 36.303125h-9.796875a1.171875 1.171875 0 0 1 -1.1484375 -0.9375l-1.875 -9.375a1.171875 1.171875 0 0 1 1.1484375 -1.40625h13.546875a1.171875 1.171875 0 0 1 1.15 1.40625l-1.875 9.375a1.1734375 1.1734375 0 0 1 -1.15 0.9375Z" fill="none" stroke="#000000" stroke-linecap="round" stroke-linejoin="round" stroke-width="2.5"></path>
</svg>