<?xml version="1.0" encoding="UTF-8" standalone="no"?>
<!DOCTYPE svg PUBLIC "-//W3C//DTD SVG 1.1//EN" "http://www.w3.org/Graphics/SVG/1.1/DTD/svg11.dtd">
<svg width="100%" height="100%" viewBox="0 0 182 183" version="1.1" xmlns="http://www.w3.org/2000/svg" xmlns:xlink="http://www.w3.org/1999/xlink" xml:space="preserve" xmlns:serif="http://www.serif.com/" style="fill-rule:evenodd;clip-rule:evenodd;stroke-linejoin:round;stroke-miterlimit:2;">
    <g transform="matrix(1,0,0,1,-1171.711677,-90.188976)">
        <g transform="matrix(2,0,0,2,0,0)">
            <g transform="matrix(1,0,0,1,0,-97.554121)">
                <g transform="matrix(0.896529,0,0,0.896529,402.566679,51.711253)">
                    <g transform="matrix(0.836372,0,0,0.842752,38.067729,-7040.61319)">
                        <path d="M319.815,8485.789L319.815,8584.447C319.815,8590.582 314.796,8595.563 308.615,8595.563L210.125,8595.563C203.944,8595.563 198.925,8590.582 198.925,8584.447L198.925,8485.789C198.925,8479.654 203.944,8474.673 210.125,8474.673L308.615,8474.673C314.796,8474.673 319.815,8479.654 319.815,8485.789Z" style="fill:white;"/>
                    </g>
                    <g transform="matrix(0.242051,0,0,3.25617,242.598079,228.25521)">
                        <path d="M-5.595,-23.755L7.965,-20.815L-19.317,-20.815L-5.595,-23.755ZM-11.568,-25.015L-9.147,-24.499L-44.823,-16.855L-19.317,-16.855L-19.317,-16.915C-27.873,-17.299 -28.68,-18.487 -21.577,-20.335L10.225,-20.335L26.529,-16.855L50.259,-16.855L50.259,-16.915C47.676,-17.011 45.578,-17.227 43.479,-17.611L8.933,-25.015L-11.568,-25.015Z" style="fill:rgb(125,192,151);fill-rule:nonzero;"/>
                        <path d="M62.366,-24.175L62.366,-17.695C62.366,-17.299 61.236,-17.083 58.33,-16.915L58.33,-16.855L85.773,-16.855L85.773,-16.915C82.868,-17.083 81.738,-17.299 81.738,-17.695L81.738,-20.935L117.252,-20.935L117.252,-17.695C117.252,-17.299 116.122,-17.083 113.216,-16.915L113.216,-16.855L140.659,-16.855L140.659,-16.915C137.754,-17.083 136.624,-17.299 136.624,-17.695L136.624,-24.175C136.624,-24.571 137.754,-24.787 140.659,-24.955L140.659,-25.015L113.216,-25.015L113.216,-24.955C116.122,-24.787 117.252,-24.571 117.252,-24.175L117.252,-21.415L81.738,-21.415L81.738,-24.175C81.738,-24.571 82.868,-24.787 85.773,-24.955L85.773,-25.015L58.33,-25.015L58.33,-24.955C61.236,-24.787 62.366,-24.571 62.366,-24.175Z" style="fill:rgb(125,192,151);fill-rule:nonzero;"/>
                    </g>
                    <g transform="matrix(2.956128,0,0,2.956128,220.152269,117.636931)">
                        <path d="M1.795,21.647L24.501,21.647L24.501,23.737L1.728,23.737L1.725,23.737C0.618,23.734 -0.292,22.824 -0.295,21.717L-0.295,21.714L-0.295,9.747C-0.295,9.727 -0.295,9.708 -0.294,9.688C-0.261,9.112 -0.006,8.571 0.417,8.18C0.443,8.156 0.47,8.133 0.498,8.112L11.371,-0.088C11.743,-0.369 12.257,-0.369 12.629,-0.088L19.543,5.127L18.285,6.796L12,2.056L1.819,9.734C1.807,9.751 1.799,9.771 1.795,9.791L1.795,21.647Z" style="fill:rgb(125,192,151);"/>
                    </g>
                </g>
            </g>
        </g>
    </g>
</svg>
